#N canvas 93 25 1221 1038 12;
#X declare -path quacktrip/lib;
#X obj 163 897 gain;
#N canvas 38 572 786 352 osc 0;
#X obj 136 269 outlet;
#X floatatom 133 147 5 0 0 0 - - - 0;
#X obj 459 269 outlet;
#X obj 134 71 receive mosc;
#X obj 581 67 send mosc;
#X obj 513 38 mrpeach/unpackOSC;
#X obj 512 14 mrpeach/udpreceive 8081;
#X obj 133 123 route /Transpo-server;
#X obj 457 127 route /Stop-server;
#X obj 306 129 route /Start-server;
#X obj 304 264 outlet;
#X connect 1 0 0 0;
#X connect 3 0 7 0;
#X connect 3 0 8 0;
#X connect 3 0 9 0;
#X connect 5 0 4 0;
#X connect 6 0 5 0;
#X connect 7 0 1 0;
#X connect 8 0 2 0;
#X connect 9 0 10 0;
#X restore 170 65 pd osc;
#X obj 173 95 vsl 15 128 0 1 0 0 empty empty empty 0 -9 0 10 #fcfcfc
#000000 #000000 0 1;
#X obj 686 627 vsl 15 128 0 1 0 0 empty empty empty 0 -9 0 10 #fcfcfc
#000000 #000000 0 1;
#X text 705 734 volume;
#X floatatom 708 757 5 0 0 0 - - - 0;
#X text 123 83 freq;
#X obj 122 898 gain;
#X obj 609 818 VU~;
#X obj 678 817 VU~;
#X msg 810 619 \; pd dsp 0 \;;
#X msg 809 558 \; pd dsp 1 \;;
#X obj 683 577 loadbang;
#X obj 202 897 gain;
#X obj 242 897 gain;
#X msg 684 599 0.09;
#X obj 744 818 VU~;
#X obj 813 817 VU~;
#X obj 130 942 dac~ 1 2 3 4 5 6 7 8;
#X obj 875 816 VU~;
#X obj 944 815 VU~;
#X obj 1010 816 VU~;
#X obj 1079 815 VU~;
#X obj 320 895 gain;
#X obj 279 896 gain;
#X obj 359 895 gain;
#X obj 399 895 gain;
#N canvas 153 374 853 658 player 0;
#X obj 93 61 inlet;
#X obj 236 35 inlet;
#X text 93 37 freq;
#X text 235 12 metro;
#X obj 288 589 outlet~;
#N canvas 0 0 450 300 (subpatch) 0;
#X array table-sonA 118080 float 0;
#X coords 0 1.02 118079 -1.02 200 130 1 0 0;
#X restore 606 265 graph;
#X obj 347 116 loadbang;
#X obj 293 542 hip~ 5;
#X obj 347 170 soundfiler;
#X text 440 123 v-- re-read original table;
#X obj 293 392 phasor~;
#X floatatom 294 304 0 0 0 0 - - - 0;
#X obj 292 440 *~ 480;
#X floatatom 347 194 9 0 0 0 - - - 0;
#X text 566 2 comment;
#X obj 293 472 tabread4~ table-sonA;
#X obj 295 268 expr 48000 / $f1;
#X msg 347 143 read -resize sound/Timbale_F#2-B.wav table-sonA;
#X floatatom 216 281 5 0 0 0 - - - 0;
#X obj 293 344 *;
#X obj 94 91 scale 0 1 0 5;
#X msg 535 88 0;
#X obj 572 27 inlet;
#X obj 236 101 / 5;
#X msg 237 76 1;
#X connect 0 0 20 0;
#X connect 1 0 24 0;
#X connect 6 0 17 0;
#X connect 7 0 4 0;
#X connect 8 0 13 0;
#X connect 10 0 12 0;
#X connect 11 0 19 1;
#X connect 12 0 15 0;
#X connect 13 0 12 1;
#X connect 13 0 16 0;
#X connect 15 0 7 0;
#X connect 16 0 11 0;
#X connect 17 0 8 0;
#X connect 18 0 19 0;
#X connect 19 0 10 0;
#X connect 20 0 18 0;
#X connect 21 0 19 0;
#X connect 22 0 21 0;
#X connect 23 0 20 0;
#X connect 24 0 23 0;
#X restore 170 244 pd player;
#N canvas 769 114 787 554 player 0;
#X obj 93 61 inlet;
#X obj 445 29 inlet;
#X text 93 37 freq;
#X text 235 12 metro;
#X obj 288 589 outlet~;
#N canvas 0 0 450 300 (subpatch) 0;
#X array table-sonB 60416 float 0;
#X coords 0 1.02 60415 -1.02 200 130 1 0 0;
#X restore 606 265 graph;
#X obj 347 116 loadbang;
#X obj 293 542 hip~ 5;
#X obj 347 170 soundfiler;
#X text 440 123 v-- re-read original table;
#X obj 293 392 phasor~;
#X floatatom 294 304 0 0 0 0 - - - 0;
#X obj 292 440 *~ 480;
#X floatatom 347 194 9 0 0 0 - - - 0;
#X text 566 2 comment;
#X obj 295 268 expr 48000 / $f1;
#X floatatom 216 281 5 0 0 0 - - - 0;
#X obj 293 344 *;
#X obj 94 91 scale 0 1 0 5;
#X obj 293 472 tabread4~ table-sonB;
#X msg 347 143 read -resize sound/Bambo4.aif table-sonB;
#X msg 247 213 0;
#X obj 236 35 inlet;
#X text 235 12 metro;
#X obj 236 101 / 5;
#X msg 237 76 1;
#X connect 0 0 18 0;
#X connect 1 0 21 0;
#X connect 6 0 20 0;
#X connect 7 0 4 0;
#X connect 8 0 13 0;
#X connect 10 0 12 0;
#X connect 11 0 17 1;
#X connect 12 0 19 0;
#X connect 13 0 12 1;
#X connect 13 0 15 0;
#X connect 15 0 11 0;
#X connect 16 0 17 0;
#X connect 17 0 10 0;
#X connect 18 0 16 0;
#X connect 19 0 7 0;
#X connect 20 0 8 0;
#X connect 21 0 17 0;
#X connect 22 0 25 0;
#X connect 24 0 18 0;
#X connect 25 0 24 0;
#X restore 531 226 pd player;
#N canvas 0 479 1115 399 osc 0;
#X obj 136 269 outlet;
#X floatatom 133 147 5 0 0 0 - - - 0;
#X obj 272 268 outlet;
#X obj 134 71 receive mosc;
#X obj 581 67 send mosc;
#X obj 513 38 mrpeach/unpackOSC;
#X obj 512 14 mrpeach/udpreceive 8081;
#X obj 133 123 route /Transpo-client;
#X obj 302 124 route /Start-client;
#X obj 425 268 outlet;
#X obj 455 124 route /Stop-client;
#X connect 1 0 0 0;
#X connect 3 0 7 0;
#X connect 3 0 8 0;
#X connect 3 0 10 0;
#X connect 5 0 4 0;
#X connect 6 0 5 0;
#X connect 7 0 1 0;
#X connect 8 0 2 0;
#X connect 10 0 9 0;
#X restore 531 57 pd osc;
#X obj 532 86 vsl 15 128 0 1 0 0 empty empty empty 0 -9 0 10 #fcfcfc
#000000 #000000 0 1;
#X text 482 74 freq;
#X text 528 25 Client - Ircam;
#X text 172 30 Serveur - MSH;
#X obj 84 408 abclib/abc_2d_decoder3~ --------------;
#X obj 365 364 abclib/abc_2d_map3~ --------------;
#X obj 51 92 VU~;
#X obj 426 91 VU~;
#X obj 64 352 abclib/abc_2d_map3~ --------------;
#X text 232 315 x;
#X text 286 318 Y;
#X floatatom 247 317 5 0 0 0 - - - 0;
#X floatatom 304 317 5 0 0 0 - - - 0;
#X text 487 322 x;
#X text 541 325 Y;
#X floatatom 503 317 5 0 0 0 - - - 0;
#X floatatom 567 322 5 0 0 0 - - - 0;
#N canvas 0 479 398 393 osc-client 0;
#X obj 131 275 outlet;
#X obj 260 286 outlet;
#X obj 135 71 receive mosc;
#X obj 134 147 unpack;
#X floatatom 133 180 5 0 0 0 - - - 0;
#X floatatom 259 186 5 0 0 0 - - - 0;
#X obj 132 235 line;
#X obj 258 243 line;
#X msg 132 211 \$1 100;
#X msg 258 219 \$1 100;
#X obj 134 123 route /xy_client;
#X connect 2 0 10 0;
#X connect 3 0 4 0;
#X connect 3 0 5 0;
#X connect 4 0 8 0;
#X connect 5 0 9 0;
#X connect 6 0 0 0;
#X connect 7 0 1 0;
#X connect 8 0 6 0;
#X connect 9 0 7 0;
#X connect 10 0 3 0;
#X restore 505 294 pd osc-client;
#N canvas 0 479 705 413 osc-server 0;
#X obj 130 275 outlet;
#X obj 259 286 outlet;
#X obj 134 71 receive mosc;
#X obj 133 147 unpack;
#X floatatom 132 180 5 0 0 0 - - - 0;
#X floatatom 258 186 5 0 0 0 - - - 0;
#X obj 133 123 route /xy_server;
#X obj 131 235 line;
#X obj 257 243 line;
#X msg 131 211 \$1 100;
#X msg 257 219 \$1 100;
#X connect 2 0 6 0;
#X connect 3 0 4 0;
#X connect 3 0 5 0;
#X connect 4 0 9 0;
#X connect 5 0 10 0;
#X connect 6 0 3 0;
#X connect 7 0 0 0;
#X connect 8 0 1 0;
#X connect 9 0 7 0;
#X connect 10 0 8 0;
#X restore 247 287 pd osc-server;
#X obj 261 112 bng 50 250 50 0 empty empty Stop 10 25 0 14 #ff0400
#000000 #000000;
#X obj 205 112 bng 50 250 50 0 empty empty Start 7 25 0 14 #00ff04
#000000 #000000;
#X text 208 101;
#X text 191 178;
#X obj 627 120 bng 50 250 50 0 empty empty Stop 10 25 0 14 #ff0400
#000000 #000000;
#X obj 571 120 bng 50 250 50 0 empty empty Start 7 25 0 14 #00ff04
#000000 #000000;
#X obj 696 384 declare -path quacktrip/lib;
#X obj 69 459 quack.quack-panel-octo 1;
#X msg 701 289 \; quack-panel-1 call-name port_4477 \, server 169.254.48.7
\, on-off 1;
#X msg 700 344 \; quack-panel-1 call-name port_4477 \, server me \,
on-off 1;
#X obj 377 405 abclib/abc_2d_decoder3~ --------------;
#X connect 0 0 9 0;
#X connect 0 0 18 1;
#X connect 1 0 2 0;
#X connect 1 1 50 0;
#X connect 1 2 49 0;
#X connect 2 0 27 0;
#X connect 3 0 5 0;
#X connect 3 0 7 1;
#X connect 3 0 0 1;
#X connect 3 0 13 1;
#X connect 3 0 24 1;
#X connect 3 0 23 1;
#X connect 3 0 25 1;
#X connect 3 0 26 1;
#X connect 3 0 14 1;
#X connect 7 0 8 0;
#X connect 7 0 18 0;
#X connect 12 0 15 0;
#X connect 13 0 16 0;
#X connect 13 0 18 2;
#X connect 14 0 17 0;
#X connect 14 0 18 3;
#X connect 15 0 3 0;
#X connect 23 0 20 0;
#X connect 23 0 18 5;
#X connect 24 0 19 0;
#X connect 24 0 18 4;
#X connect 25 0 21 0;
#X connect 25 0 18 6;
#X connect 26 0 22 0;
#X connect 26 0 18 7;
#X connect 27 0 36 0;
#X connect 27 0 38 1;
#X connect 28 0 35 1;
#X connect 28 0 37 0;
#X connect 29 0 30 0;
#X connect 29 1 54 0;
#X connect 29 2 53 0;
#X connect 30 0 28 0;
#X connect 35 1 59 1;
#X connect 35 2 59 2;
#X connect 35 3 59 3;
#X connect 35 4 59 4;
#X connect 35 5 59 5;
#X connect 35 6 59 6;
#X connect 35 7 59 7;
#X connect 38 1 34 1;
#X connect 38 2 34 2;
#X connect 38 3 34 3;
#X connect 38 4 34 4;
#X connect 38 5 34 5;
#X connect 38 6 34 6;
#X connect 38 7 34 7;
#X connect 41 0 38 2;
#X connect 42 0 38 3;
#X connect 45 0 35 2;
#X connect 46 0 35 3;
#X connect 48 0 41 0;
#X connect 48 1 42 0;
#X connect 49 0 27 2;
#X connect 50 0 27 1;
#X connect 53 0 28 2;
#X connect 54 0 28 1;
#X connect 56 0 7 0;
#X connect 56 1 0 0;
#X connect 56 2 13 0;
#X connect 56 3 14 0;
#X connect 56 4 24 0;
#X connect 56 5 23 0;
#X connect 56 6 25 0;
#X connect 56 7 26 0;
#X connect 59 1 7 0;
#X connect 59 1 56 0;
#X connect 59 2 0 0;
#X connect 59 2 56 1;
#X connect 59 3 13 0;
#X connect 59 3 56 2;
#X connect 59 4 14 0;
#X connect 59 4 56 3;
#X connect 59 5 24 0;
#X connect 59 5 56 4;
#X connect 59 6 23 0;
#X connect 59 6 56 5;
#X connect 59 7 25 0;
#X connect 59 7 56 6;
#X connect 59 8 26 0;
#X connect 59 8 56 7;
