#N canvas 282 75 1221 1038 12;
#X declare -path quacktrip/lib -path abclib;
#X obj 163 897 gain;
#N canvas 11 227 1337 390 osc 0;
#X obj 136 269 outlet;
#X floatatom 133 147 5 0 0 0 - - - 0;
#X obj 459 269 outlet;
#X obj 134 71 receive mosc;
#X obj 304 264 outlet;
#X obj 797 40 loadbang;
#X obj 797 175 print;
#X obj 824 136 send mosc;
#X obj 306 129 route Start-server;
#X floatatom 306 153 5 0 0 0 - - - 0;
#X msg 1049 157 disconnect \, connect 192.168.194.42 8082;
#X obj 1013 201 netsend -u;
#X obj 1033 68 list prepend send;
#X obj 1033 92 list trim;
#X msg 797 64 listen 8082;
#X obj 133 123 route Transpo-server;
#X obj 457 127 route Stop-server;
#X obj 74 122 print;
#X obj 805 90 netreceive -u;
#X connect 1 0 0 0;
#X connect 3 0 8 0;
#X connect 3 0 15 0;
#X connect 3 0 16 0;
#X connect 3 0 17 0;
#X connect 5 0 14 0;
#X connect 8 0 4 0;
#X connect 8 0 9 0;
#X connect 10 0 11 0;
#X connect 12 0 13 0;
#X connect 13 0 11 0;
#X connect 14 0 18 0;
#X connect 15 0 1 0;
#X connect 16 0 2 0;
#X connect 18 0 7 0;
#X restore 170 65 pd osc;
#X obj 173 95 vsl 15 128 0 1 0 0 empty empty empty 0 -9 0 10 #fcfcfc #000000 #000000 0 1;
#X obj 686 627 vsl 15 128 0 1 0 0 empty empty empty 0 -9 0 10 #fcfcfc #000000 #000000 0 1;
#X text 705 734 volume;
#X floatatom 708 757 5 0 0 0 - - - 0;
#X text 123 83 freq;
#X obj 122 898 gain;
#X obj 609 818 VU~;
#X obj 678 817 VU~;
#X msg 810 619 \; pd dsp 0 \;;
#X msg 809 558 \; pd dsp 1 \;;
#X obj 683 577 loadbang;
#X obj 202 897 gain;
#X obj 242 897 gain;
#X msg 684 599 0.09;
#X obj 744 818 VU~;
#X obj 813 817 VU~;
#X obj 130 942 dac~ 1 2 3 4 5 6 7 8;
#X obj 875 816 VU~;
#X obj 944 815 VU~;
#X obj 1010 816 VU~;
#X obj 1079 815 VU~;
#X obj 320 895 gain;
#X obj 279 896 gain;
#X obj 359 895 gain;
#X obj 399 895 gain;
#N canvas 153 374 853 658 player 0;
#X obj 93 61 inlet;
#X obj 236 35 inlet;
#X text 93 37 freq;
#X text 235 12 metro;
#X obj 288 589 outlet~;
#N canvas 0 0 450 300 (subpatch) 0;
#X array table-sonA 118080 float 0;
#X coords 0 1.02 118079 -1.02 200 130 1 0 0;
#X restore 606 265 graph;
#X obj 347 116 loadbang;
#X obj 293 542 hip~ 5;
#X obj 347 170 soundfiler;
#X text 440 123 v-- re-read original table;
#X obj 293 392 phasor~;
#X floatatom 294 304 0 0 0 0 - - - 0;
#X obj 292 440 *~ 480;
#X floatatom 347 194 9 0 0 0 - - - 0;
#X text 566 2 comment;
#X obj 293 472 tabread4~ table-sonA;
#X obj 295 268 expr 48000 / $f1;
#X msg 347 143 read -resize sound/Timbale_F#2-B.wav table-sonA;
#X floatatom 216 281 5 0 0 0 - - - 0;
#X obj 293 344 *;
#X obj 94 91 scale 0 1 0 5;
#X msg 535 88 0;
#X obj 572 27 inlet;
#X obj 236 101 / 5;
#X msg 237 76 1;
#X connect 0 0 20 0;
#X connect 1 0 24 0;
#X connect 6 0 17 0;
#X connect 7 0 4 0;
#X connect 8 0 13 0;
#X connect 10 0 12 0;
#X connect 11 0 19 1;
#X connect 12 0 15 0;
#X connect 13 0 12 1;
#X connect 13 0 16 0;
#X connect 15 0 7 0;
#X connect 16 0 11 0;
#X connect 17 0 8 0;
#X connect 18 0 19 0;
#X connect 19 0 10 0;
#X connect 20 0 18 0;
#X connect 21 0 19 0;
#X connect 22 0 21 0;
#X connect 23 0 20 0;
#X connect 24 0 23 0;
#X restore 170 244 pd player;
#N canvas 769 114 787 554 player 0;
#X obj 93 61 inlet;
#X obj 445 29 inlet;
#X text 93 37 freq;
#X text 235 12 metro;
#X obj 288 589 outlet~;
#N canvas 0 0 450 300 (subpatch) 0;
#X array table-sonB 60416 float 0;
#X coords 0 1.02 60415 -1.02 200 130 1 0 0;
#X restore 606 265 graph;
#X obj 347 116 loadbang;
#X obj 293 542 hip~ 5;
#X obj 347 170 soundfiler;
#X text 440 123 v-- re-read original table;
#X obj 293 392 phasor~;
#X floatatom 294 304 0 0 0 0 - - - 0;
#X obj 292 440 *~ 480;
#X floatatom 347 194 9 0 0 0 - - - 0;
#X text 566 2 comment;
#X obj 295 268 expr 48000 / $f1;
#X floatatom 216 281 5 0 0 0 - - - 0;
#X obj 293 344 *;
#X obj 94 91 scale 0 1 0 5;
#X obj 293 472 tabread4~ table-sonB;
#X msg 347 143 read -resize sound/Bambo4.aif table-sonB;
#X msg 247 213 0;
#X obj 236 35 inlet;
#X text 235 12 metro;
#X obj 236 101 / 5;
#X msg 237 76 1;
#X connect 0 0 18 0;
#X connect 1 0 21 0;
#X connect 6 0 20 0;
#X connect 7 0 4 0;
#X connect 8 0 13 0;
#X connect 10 0 12 0;
#X connect 11 0 17 1;
#X connect 12 0 19 0;
#X connect 13 0 12 1;
#X connect 13 0 15 0;
#X connect 15 0 11 0;
#X connect 16 0 17 0;
#X connect 17 0 10 0;
#X connect 18 0 16 0;
#X connect 19 0 7 0;
#X connect 20 0 8 0;
#X connect 21 0 17 0;
#X connect 22 0 25 0;
#X connect 24 0 18 0;
#X connect 25 0 24 0;
#X restore 531 226 pd player;
#N canvas 1 108 1115 399 osc 0;
#X obj 136 269 outlet;
#X floatatom 133 147 5 0 0 0 - - - 0;
#X obj 272 268 outlet;
#X obj 134 71 receive mosc;
#X obj 425 268 outlet;
#X obj 133 123 route Transpo-client;
#X obj 302 124 route Start-client;
#X obj 455 124 route Stop-client;
#X connect 1 0 0 0;
#X connect 3 0 5 0;
#X connect 3 0 6 0;
#X connect 3 0 7 0;
#X connect 5 0 1 0;
#X connect 6 0 2 0;
#X connect 7 0 4 0;
#X restore 531 57 pd osc;
#X obj 532 86 vsl 15 128 0 1 0 0 empty empty empty 0 -9 0 10 #fcfcfc #000000 #000000 0 1;
#X text 482 74 freq;
#X text 528 25 Client - Ircam;
#X text 172 30 Serveur - MSH;
#X obj 84 408 abclib/abc_2d_decoder3~ --------------;
#X obj 365 364 abclib/abc_2d_map3~ --------------;
#X obj 51 92 VU~;
#X obj 426 91 VU~;
#X obj 64 352 abclib/abc_2d_map3~ --------------;
#X floatatom 243 285 5 0 0 0 - - - 0;
#X floatatom 313 284 5 0 0 0 - - - 0;
#X floatatom 502 295 5 0 0 0 - - - 0;
#X floatatom 586 294 5 0 0 0 - - - 0;
#N canvas 194 214 881 608 osc-server 0;
#X obj 128 406 outlet;
#X obj 257 417 outlet;
#X obj 134 71 receive mosc;
#X floatatom 130 311 5 0 0 0 - - - 0;
#X floatatom 256 317 5 0 0 0 - - - 0;
#X obj 129 366 line;
#X obj 255 374 line;
#X msg 129 342 \$1 100;
#X msg 255 350 \$1 100;
#X obj 133 123 route xy_server;
#X obj 134 156 t l l;
#X obj 137 204 expr sqrt($f1*$f1 + $f2*$f2);
#X obj 259 265 expr atan2($f2 \, $f1);
#X connect 2 0 9 0;
#X connect 3 0 7 0;
#X connect 4 0 8 0;
#X connect 5 0 0 0;
#X connect 6 0 1 0;
#X connect 7 0 5 0;
#X connect 8 0 6 0;
#X connect 9 0 10 0;
#X connect 10 0 11 0;
#X connect 10 1 12 0;
#X connect 11 0 3 0;
#X connect 12 0 4 0;
#X restore 252 254 pd osc-server;
#X obj 261 112 bng 50 250 50 0 empty empty Stop 10 25 0 14 #ff0400 #000000 #000000;
#X obj 205 112 bng 50 250 50 0 empty empty Start 7 25 0 14 #00ff04 #000000 #000000;
#X obj 627 120 bng 50 250 50 0 empty empty Stop 10 25 0 14 #ff0400 #000000 #000000;
#X obj 571 120 bng 50 250 50 0 empty empty Start 7 25 0 14 #00ff04 #000000 #000000;
#X obj 69 459 quack.quack-panel-octo 1;
#X msg 701 289 \; quack-panel-1 call-name port_4477 \, server 169.254.48.7 \, on-off 1;
#X msg 704 249 \; quack-panel-1 call-name port_4477 \, server me \, on-off 1;
#X obj 377 405 abclib/abc_2d_decoder3~ --------------;
#N canvas 384 144 881 608 osc-client 1;
#X obj 128 406 outlet;
#X obj 257 417 outlet;
#X obj 134 71 receive mosc;
#X floatatom 130 311 5 0 0 0 - - - 0;
#X floatatom 256 317 5 0 0 0 - - - 0;
#X obj 129 366 line;
#X obj 255 374 line;
#X msg 129 342 \$1 100;
#X msg 255 350 \$1 100;
#X obj 133 123 route xy_server;
#X obj 134 156 t l l;
#X obj 137 204 expr sqrt($f1*$f1 + $f2*$f2);
#X obj 259 265 expr atan2($f2 \, $f1);
#X connect 2 0 9 0;
#X connect 3 0 7 0;
#X connect 4 0 8 0;
#X connect 5 0 0 0;
#X connect 6 0 1 0;
#X connect 7 0 5 0;
#X connect 8 0 6 0;
#X connect 9 0 10 0;
#X connect 10 0 11 0;
#X connect 10 1 12 0;
#X connect 11 0 3 0;
#X connect 12 0 4 0;
#X restore 500 268 pd osc-client;
#X obj 308 311 sig~;
#X obj 248 312 sig~;
#X obj 502 318 sig~;
#X obj 586 317 sig~;
#X obj 696 384 declare -path quacktrip/lib -path abclib;
#X text 607 273 [-3 \, 3];
#X text 620 255 x \, y;
#X text 622 217 (-3 \, 3 -> left stage);
#X connect 0 0 9 0;
#X connect 0 0 18 1;
#X connect 1 0 2 0;
#X connect 1 1 45 0;
#X connect 1 2 44 0;
#X connect 2 0 27 0;
#X connect 3 0 5 0;
#X connect 3 0 7 1;
#X connect 3 0 0 1;
#X connect 3 0 13 1;
#X connect 3 0 24 1;
#X connect 3 0 23 1;
#X connect 3 0 25 1;
#X connect 3 0 26 1;
#X connect 3 0 14 1;
#X connect 7 0 8 0;
#X connect 7 0 18 0;
#X connect 12 0 15 0;
#X connect 13 0 16 0;
#X connect 13 0 18 2;
#X connect 14 0 17 0;
#X connect 14 0 18 3;
#X connect 15 0 3 0;
#X connect 23 0 20 0;
#X connect 23 0 18 5;
#X connect 24 0 19 0;
#X connect 24 0 18 4;
#X connect 25 0 21 0;
#X connect 25 0 18 6;
#X connect 26 0 22 0;
#X connect 26 0 18 7;
#X connect 27 0 36 0;
#X connect 27 0 38 1;
#X connect 27 0 48 1;
#X connect 28 0 35 1;
#X connect 28 0 37 0;
#X connect 29 0 30 0;
#X connect 29 1 47 0;
#X connect 29 2 46 0;
#X connect 30 0 28 0;
#X connect 35 1 51 1;
#X connect 35 2 51 2;
#X connect 35 3 51 3;
#X connect 35 4 51 4;
#X connect 35 5 51 5;
#X connect 35 6 51 6;
#X connect 35 7 51 7;
#X connect 38 1 34 1;
#X connect 38 2 34 2;
#X connect 38 3 34 3;
#X connect 38 4 34 4;
#X connect 38 5 34 5;
#X connect 38 6 34 6;
#X connect 38 7 34 7;
#X connect 39 0 54 0;
#X connect 40 0 53 0;
#X connect 41 0 55 0;
#X connect 42 0 56 0;
#X connect 43 0 39 0;
#X connect 43 1 40 0;
#X connect 44 0 27 2;
#X connect 45 0 27 1;
#X connect 46 0 28 2;
#X connect 47 0 28 1;
#X connect 48 0 7 0;
#X connect 48 1 0 0;
#X connect 48 2 13 0;
#X connect 48 3 14 0;
#X connect 48 4 24 0;
#X connect 48 5 23 0;
#X connect 48 6 25 0;
#X connect 48 7 26 0;
#X connect 51 1 7 0;
#X connect 51 1 48 0;
#X connect 51 2 0 0;
#X connect 51 2 48 1;
#X connect 51 3 13 0;
#X connect 51 3 48 2;
#X connect 51 4 14 0;
#X connect 51 4 48 3;
#X connect 51 5 24 0;
#X connect 51 5 48 4;
#X connect 51 6 23 0;
#X connect 51 6 48 5;
#X connect 51 7 25 0;
#X connect 51 7 48 6;
#X connect 51 8 26 0;
#X connect 51 8 48 7;
#X connect 52 0 41 0;
#X connect 52 1 42 0;
#X connect 53 0 38 3;
#X connect 54 0 38 2;
#X connect 55 0 35 2;
#X connect 56 0 35 3;
