#N canvas 292 191 450 300 10;
#X obj 240 35 loadbang;
#X obj 240 77 \$4;
#X obj 267 77 \$3;
#X obj 240 57 t b b;
#X obj 240 99 -, f 5;
#X obj 140 35 loadbang;
#X obj 140 57 t b b;
#X obj 140 99 -, f 5;
#X obj 167 77 \$1;
#X obj 140 77 \$2;
#X obj 54 35 inlet;
#X obj 54 117 -;
#X obj 54 139 /;
#X obj 54 161 *;
#X obj 54 183 +;
#X obj 54 205 clip \$3 \$4;
#X obj 54 227 outlet;
#X connect 0 0 3 0;
#X connect 1 0 4 0;
#X connect 2 0 4 1;
#X connect 2 0 14 1;
#X connect 3 0 1 0;
#X connect 3 1 2 0;
#X connect 4 0 13 1;
#X connect 5 0 6 0;
#X connect 6 0 9 0;
#X connect 6 1 8 0;
#X connect 7 0 12 1;
#X connect 8 0 7 1;
#X connect 8 0 11 1;
#X connect 9 0 7 0;
#X connect 10 0 11 0;
#X connect 11 0 12 0;
#X connect 12 0 13 0;
#X connect 13 0 14 0;
#X connect 14 0 15 0;
#X connect 15 0 16 0;
